<svg id="Capa_1" enable-background="new 0 0 512 512" height="512" viewBox="0 0 512 512" width="512" xmlns="http://www.w3.org/2000/svg"><g><path d="m467 17h-421c-24.813 0-46 20.187-46 45v292c0 24.813 21.187 45 46 45h144.293l-11 66h-19.293c-8.284 0-15 6.716-15 15s6.716 15 15 15h192c8.284 0 15-6.716 15-15s-6.716-15-15-15h-19.293l-11-66h145.293c24.813 0 45-20.187 45-45v-292c0-24.813-20.187-45-45-45zm-164.707 448h-92.586l11-66h70.586zm179.707-111c0 8.271-6.729 15-15 15-10.702 0-408.447 0-421 0-8.271 0-16-6.729-16-15v-292c0-8.271 7.729-15 16-15h195v17c0 8.284 6.716 15 15 15s15-6.716 15-15v-17h196c8.271 0 15 6.729 15 15z"/><path d="m182.428 171.011c21.778-30.89-.323-74.011-38.428-74.011-38.099 0-60.21 43.116-38.428 74.011-24.18 13.522-40.572 39.371-40.572 68.989v72c0 8.284 6.716 15 15 15h128c8.284 0 15-6.716 15-15v-72c0-29.618-16.392-55.467-40.572-68.989zm-55.428-27.011c0-9.374 7.626-17 17-17s17 7.626 17 17-7.626 17-17 17-17-7.626-17-17zm66 153h-98v-57c0-27.019 21.981-49 49-49s49 21.981 49 49z"/><path d="m312.33 299.529c-7.731-5.081-17.619-2.102-21.55 5.41-5.908 11.062 3.541 24.131 16.15 21.771 13.343-2.796 16.264-20.007 5.4-27.181z"/><path d="m377.51 300.399c-10.778-8.783-26.86.516-24.22 14.53 2.493 12.027 17.021 15.95 25.32 7.68 6.263-6.284 5.741-16.617-1.1-22.21z"/><path d="m440.33 299.529c-7.737-5.084-17.624-2.093-21.55 5.41-5.935 11.114 3.593 24.121 16.15 21.771 13.246-2.776 16.348-19.775 5.4-27.181z"/><path d="m384.295 165.171c-9.562-3.38-20.099-7.434-25.756-11.872-.372-.292-1.066-2.038-.579-4.628.234-1.241 1.307-5.382 5.301-6.585 10.004-3.013 14.625.84 15.462 1.657 5.809 5.896 15.298 5.973 21.202.167 5.907-5.809 5.986-15.306.177-21.212-4.089-4.158-10.042-7.93-17.432-10.017v-.831c0-8.284-6.716-15-15-15s-15 6.716-15 15v2.172c-27.028 9.821-33.247 46.726-12.646 62.884 9.047 7.096 21.818 12.148 34.272 16.551 7.434 2.627 8.191 7.958 7.517 11.966-.75 4.465-4.596 12.04-14.246 12.104-9.996.069-12.365-.304-19.677-5.087-6.933-4.535-16.229-2.592-20.764 4.341s-2.591 16.229 4.341 20.764c7.977 5.218 14.292 7.804 21.202 9.017v1.438c0 8.284 6.716 15 15 15s15-6.716 15-15v-3.135c36.345-13.139 41.161-65.72 1.626-79.694z"/></g></svg>