<svg id="Capa_1" enable-background="new 0 0 512.015 512.015" height="512" viewBox="0 0 512.015 512.015" width="512" xmlns="http://www.w3.org/2000/svg"><g><path d="m487.482 301.791c-15.453-11.544-34.897-15.096-53.428-9.778l-171.956 39.128c-3.935-3.574-8.453-6.575-13.457-8.827l-88.298-39.613c-25.683-11.558-55.078-11.417-80.576.352l-70.97 32.294c-7.541 3.431-10.872 12.325-7.44 19.866s12.326 10.872 19.865 7.44l71.044-32.328c17.681-8.161 38.007-8.258 55.782-.259l88.298 39.613c7.835 3.526 12.664 11.329 12.664 19.585 0 15.581-16.018 26.007-30.291 19.585l-76.349-34.357c-7.554-3.401-16.435-.031-19.834 7.523-3.399 7.555-.031 16.435 7.523 19.834l76.349 34.357c38.398 17.279 80.444-16.517 71.419-57.878 112.514-25.602 163.526-37.192 164.245-37.405 20.009-5.917 39.937 9.051 39.937 29.806 0 10.932-5.842 21.184-15.212 26.735l-161.604 95.18c-17.047 10.1-37.547 12.136-56.249 5.587l-123.98-43.39c-3.341-1.169-6.988-1.119-10.295.141l-105 40c-7.742 2.949-11.626 11.616-8.677 19.357 2.949 7.742 11.615 11.627 19.357 8.677l99.878-38.049 118.803 41.578c26.509 9.285 56.252 6.841 81.421-8.072l161.603-95.18c37.448-22.182 40.379-75.39 5.428-101.502z"/><path d="m126.009 239h260c24.813 0 45-20.187 45-45v-4.188c45.281-7.213 81-46.532 81-93.812 0-52.383-43.617-96-96-96-19.483 0-37.613 6.899-52.704 17h-237.296c-24.813 0-45 20.187-45 45v132c0 24.813 20.187 45 45 45zm260-30h-260c-8.271 0-15-6.729-15-15v-83h211.188c6.435 40.393 38.418 72.377 78.812 78.812v4.188c0 8.271-6.729 15-15 15zm96-113c0 35.841-30.159 65-66 65s-65-29.159-65-65 29.159-66 65-66 66 30.159 66 66zm-356-49h208.641c-6.189 10.237-10.498 21.731-12.452 34h-211.189v-19c0-8.271 6.729-15 15-15z"/><path d="m224.009 145h-64c-8.284 0-15 6.716-15 15s6.716 15 15 15h64c8.284 0 15-6.716 15-15s-6.716-15-15-15z"/><path d="m401.403 118.607c6.172 6.172 16.309 5.79 21.995-.845l24-28c5.392-6.29 4.663-15.76-1.627-21.151s-15.759-4.663-21.15 1.627l-13.459 15.702-.546-.546c-5.857-5.857-15.355-5.857-21.213 0-5.858 5.858-5.858 15.355 0 21.213z"/></g></svg>